{
  "accessors": [
    {
      "bufferView": 2,
      "componentType": 5126,
      "count": 19515,
      "max": [
        1.0036802291870117,
        0.9104800224304199,
        5.629831314086914
      ],
      "min": [
        -0.9820977449417114,
        -0.8914402723312378,
        0.016295909881591797
      ],
      "type": "VEC3"
    },
    {
      "bufferView": 2,
      "byteOffset": 234180,
      "componentType": 5126,
      "count": 19515,
      "max": [
        0.9999699592590332,
        0.9999603033065796,
        0.999922513961792
      ],
      "min": [
        -0.9998335838317871,
        -0.9999603033065796,
        -0.9999907612800598
      ],
      "type": "VEC3"
    },
    {
      "bufferView": 1,
      "componentType": 5126,
      "count": 19515,
      "max": [
        0.9979249238967896,
        0.997925877571106
      ],
      "min": [
        0.002074003219604492,
        0.002074003219604492
      ],
      "type": "VEC2"
    },
    {
      "bufferView": 0,
      "componentType": 5125,
      "count": 77808,
      "type": "SCALAR"
    },
    {
      "bufferView": 2,
      "byteOffset": 468360,
      "componentType": 5126,
      "count": 12758,
      "max": [
        0.51097172498703,
        0.2633293867111206,
        6.439419269561768
      ],
      "min": [
        -0.4840981960296631,
        -0.6632673144340515,
        4.881052017211914
      ],
      "type": "VEC3"
    },
    {
      "bufferView": 2,
      "byteOffset": 621456,
      "componentType": 5126,
      "count": 12758,
      "max": [
        0.9999366998672485,
        0.9999895691871643,
        0.9987386465072632
      ],
      "min": [
        -0.9999728798866272,
        -0.9999991655349731,
        -0.9999462962150574
      ],
      "type": "VEC3"
    },
    {
      "bufferView": 1,
      "byteOffset": 156120,
      "componentType": 5126,
      "count": 12758,
      "max": [
        0.9978806376457214,
        0.9938207864761353
      ],
      "min": [
        0.002119302749633789,
        0.002119302749633789
      ],
      "type": "VEC2"
    },
    {
      "bufferView": 0,
      "byteOffset": 311232,
      "componentType": 5125,
      "count": 53124,
      "type": "SCALAR"
    }
  ],
  "asset": {
    "extras": {
      "author": "ridho.mnf (https://sketchfab.com/ridho.mnf)",
      "license": "CC-BY-4.0 (http://creativecommons.org/licenses/by/4.0/)",
      "source": "https://sketchfab.com/3d-models/cute-girl-character-bba356a4e5d348e7839cc9caefac67da",
      "title": "Cute Girl Character"
    },
    "generator": "Sketchfab-13.74.0",
    "version": "2.0"
  },
  "bufferViews": [
    {
      "buffer": 0,
      "byteLength": 523728,
      "name": "floatBufferViews",
      "target": 34963
    },
    {
      "buffer": 0,
      "byteLength": 258184,
      "byteOffset": 523728,
      "byteStride": 8,
      "name": "floatBufferViews",
      "target": 34962
    },
    {
      "buffer": 0,
      "byteLength": 774552,
      "byteOffset": 781912,
      "byteStride": 12,
      "name": "floatBufferViews",
      "target": 34962
    }
  ],
  "buffers": [
    {
      "byteLength": 1556464,
      "uri": "scene.bin"
    }
  ],
  "images": [
    {
      "uri": "textures/Body_baseColor.png"
    },
    {
      "uri": "textures/Head_baseColor.png"
    }
  ],
  "materials": [
    {
      "doubleSided": true,
      "name": "Body",
      "pbrMetallicRoughness": {
        "baseColorTexture": {
          "index": 0
        },
        "metallicFactor": 0.0,
        "roughnessFactor": 0.8211145618000169
      }
    },
    {
      "doubleSided": true,
      "name": "Head",
      "pbrMetallicRoughness": {
        "baseColorTexture": {
          "index": 1
        },
        "metallicFactor": 0.0,
        "roughnessFactor": 0.8211145618000169
      }
    }
  ],
  "meshes": [
    {
      "name": "Body_Body_0",
      "primitives": [
        {
          "attributes": {
            "NORMAL": 1,
            "POSITION": 0,
            "TEXCOORD_0": 2
          },
          "indices": 3,
          "material": 0,
          "mode": 4
        }
      ]
    },
    {
      "name": "Head_Head_0",
      "primitives": [
        {
          "attributes": {
            "NORMAL": 5,
            "POSITION": 4,
            "TEXCOORD_0": 6
          },
          "indices": 7,
          "material": 1,
          "mode": 4
        }
      ]
    }
  ],
  "nodes": [
    {
      "children": [
        1
      ],
      "matrix": [
        1.0,
        0.0,
        0.0,
        0.0,
        0.0,
        2.220446049250313e-16,
        -1.0,
        0.0,
        0.0,
        1.0,
        2.220446049250313e-16,
        0.0,
        0.0,
        0.0,
        0.0,
        1.0
      ],
      "name": "Sketchfab_model"
    },
    {
      "children": [
        2
      ],
      "matrix": [
        1.0,
        0.0,
        0.0,
        0.0,
        0.0,
        0.0,
        1.0,
        0.0,
        0.0,
        -1.0,
        0.0,
        0.0,
        0.0,
        0.0,
        0.0,
        1.0
      ],
      "name": "Female Full body Sketchfab.fbx"
    },
    {
      "children": [
        3,
        5
      ],
      "name": "RootNode"
    },
    {
      "children": [
        4
      ],
      "matrix": [
        1.0,
        0.0,
        0.0,
        0.0,
        0.0,
        -1.6292067939183141e-07,
        -0.9999999999999868,
        0.0,
        0.0,
        0.9999999999999868,
        -1.6292067939183141e-07,
        0.0,
        0.0,
        0.0,
        0.0,
        1.0
      ],
      "name": "Body"
    },
    {
      "mesh": 0,
      "name": "Body_Body_0"
    },
    {
      "children": [
        6
      ],
      "matrix": [
        1.0,
        0.0,
        0.0,
        0.0,
        0.0,
        -1.6292067939183141e-07,
        -0.9999999999999868,
        0.0,
        0.0,
        0.9999999999999868,
        -1.6292067939183141e-07,
        0.0,
        0.0,
        0.0,
        0.0,
        1.0
      ],
      "name": "Head"
    },
    {
      "mesh": 1,
      "name": "Head_Head_0"
    }
  ],
  "samplers": [
    {
      "magFilter": 9729,
      "minFilter": 9987,
      "wrapS": 10497,
      "wrapT": 10497
    }
  ],
  "scene": 0,
  "scenes": [
    {
      "name": "Sketchfab_Scene",
      "nodes": [
        0
      ]
    }
  ],
  "textures": [
    {
      "sampler": 0,
      "source": 0
    },
    {
      "sampler": 0,
      "source": 1
    }
  ]
}
